<svg width="18" height="18" viewBox="0 0 18 18" fill="none" xmlns="http://www.w3.org/2000/svg">
<g clip-path="url(#clip0_2_140)">
<g clip-path="url(#clip1_2_140)">
<path d="M13.2365 11.063C13.4052 11.2318 13.5 11.4607 13.5 11.6993C13.5 11.938 13.4052 12.1668 13.2365 12.3356L9.63646 15.9356C9.46769 16.1043 9.23881 16.1991 9.00016 16.1991C8.76152 16.1991 8.53265 16.1043 8.36387 15.9356L4.76386 12.3356C4.59992 12.1659 4.50921 11.9385 4.51126 11.7025C4.51331 11.4666 4.60796 11.2408 4.77483 11.074C4.94169 10.9071 5.16743 10.8125 5.4034 10.8104C5.63938 10.8084 5.86672 10.8991 6.03646 11.063L8.10016 13.1267V2.69932C8.10016 2.46062 8.19499 2.23171 8.36377 2.06292C8.53255 1.89414 8.76147 1.79932 9.00016 1.79932C9.23886 1.79932 9.46778 1.89414 9.63656 2.06292C9.80534 2.23171 9.90016 2.46062 9.90016 2.69932V13.1267L11.9639 11.063C12.1327 10.8943 12.3615 10.7995 12.6002 10.7995C12.8388 10.7995 13.0677 10.8943 13.2365 11.063Z" fill="#FF0000"/>
</g>
</g>
<defs>
<clipPath id="clip0_2_140">
<rect width="18" height="18" fill="white"/>
</clipPath>
<clipPath id="clip1_2_140">
<rect width="18" height="18" fill="white"/>
</clipPath>
</defs>
</svg>
