<svg width="36" height="37" viewBox="0 0 36 37" fill="none" xmlns="http://www.w3.org/2000/svg">
<rect y="0.5" width="36" height="36" rx="18" fill="#FBD5D5"/>
<g clip-path="url(#clip0_2_219)">
<rect x="8" y="8.5" width="20" height="20" rx="10" fill="#E02424"/>
<path fill-rule="evenodd" clip-rule="evenodd" d="M12.5583 13.0583C12.6755 12.9413 12.8343 12.8755 12.9999 12.8755C13.1656 12.8755 13.3244 12.9413 13.4416 13.0583L17.9999 17.6166L22.5583 13.0583C22.6155 12.9969 22.6845 12.9476 22.7612 12.9135C22.8378 12.8793 22.9206 12.861 23.0045 12.8595C23.0884 12.858 23.1718 12.8734 23.2496 12.9049C23.3274 12.9363 23.3981 12.9831 23.4575 13.0424C23.5168 13.1018 23.5636 13.1725 23.595 13.2503C23.6265 13.3281 23.6419 13.4115 23.6404 13.4954C23.6389 13.5793 23.6206 13.6621 23.5864 13.7387C23.5523 13.8154 23.503 13.8844 23.4416 13.9416L18.8833 18.5L23.4416 23.0583C23.503 23.1155 23.5523 23.1845 23.5864 23.2612C23.6206 23.3378 23.6389 23.4206 23.6404 23.5045C23.6419 23.5884 23.6265 23.6718 23.595 23.7496C23.5636 23.8275 23.5168 23.8981 23.4575 23.9575C23.3981 24.0168 23.3274 24.0636 23.2496 24.0951C23.1718 24.1265 23.0884 24.1419 23.0045 24.1405C22.9206 24.139 22.8378 24.1206 22.7612 24.0864C22.6845 24.0523 22.6155 24.003 22.5583 23.9416L17.9999 19.3833L13.4416 23.9416C13.3231 24.052 13.1664 24.1121 13.0045 24.1093C12.8426 24.1064 12.6881 24.0408 12.5736 23.9263C12.4591 23.8118 12.3935 23.6573 12.3906 23.4954C12.3878 23.3335 12.4479 23.1768 12.5583 23.0583L17.1166 18.5L12.5583 13.9416C12.4412 13.8244 12.3755 13.6656 12.3755 13.5C12.3755 13.3343 12.4412 13.1755 12.5583 13.0583Z" fill="white"/>
</g>
<defs>
<clipPath id="clip0_2_219">
<rect x="8" y="8.5" width="20" height="20" rx="10" fill="white"/>
</clipPath>
</defs>
</svg>
