<svg width="36" height="37" viewBox="0 0 36 37" fill="none" xmlns="http://www.w3.org/2000/svg">
<rect y="0.5" width="36" height="36" rx="18" fill="#BCF0DA"/>
<path fill-rule="evenodd" clip-rule="evenodd" d="M9.875 18.5C9.875 14.0125 13.5125 10.375 18 10.375C22.4875 10.375 26.125 14.0125 26.125 18.5C26.125 22.9875 22.4875 26.625 18 26.625C13.5125 26.625 9.875 22.9875 9.875 18.5ZM21.0083 16.9883C21.0583 16.9217 21.0945 16.8458 21.1147 16.765C21.135 16.6842 21.1388 16.6001 21.1261 16.5178C21.1134 16.4355 21.0844 16.3565 21.0407 16.2856C20.997 16.2146 20.9396 16.1531 20.8719 16.1047C20.8041 16.0563 20.7273 16.0219 20.6461 16.0035C20.5648 15.9852 20.4807 15.9833 20.3987 15.9979C20.3167 16.0125 20.2385 16.0434 20.1686 16.0887C20.0987 16.134 20.0385 16.1928 19.9917 16.2617L17.295 20.0367L15.9417 18.6833C15.8232 18.5729 15.6665 18.5128 15.5046 18.5157C15.3426 18.5185 15.1882 18.5841 15.0736 18.6986C14.9591 18.8132 14.8935 18.9676 14.8907 19.1296C14.8878 19.2915 14.9479 19.4482 15.0583 19.5667L16.9333 21.4417C16.9975 21.5058 17.0748 21.5552 17.16 21.5864C17.2451 21.6176 17.3361 21.6299 17.4265 21.6224C17.5169 21.615 17.6045 21.588 17.6834 21.5432C17.7623 21.4985 17.8305 21.4371 17.8833 21.3633L21.0083 16.9883Z" fill="#0E9F6E"/>
</svg>
