<svg width="36" height="37" viewBox="0 0 36 37" fill="none" xmlns="http://www.w3.org/2000/svg">
<rect y="0.5" width="36" height="36" rx="18" fill="#F1EDFF"/>
<path fill-rule="evenodd" clip-rule="evenodd" d="M18 10.375C13.5125 10.375 9.875 14.0125 9.875 18.5C9.875 22.9875 13.5125 26.625 18 26.625C22.4875 26.625 26.125 22.9875 26.125 18.5C26.125 14.0125 22.4875 10.375 18 10.375ZM18.625 13.5C18.625 13.3342 18.5592 13.1753 18.4419 13.0581C18.3247 12.9408 18.1658 12.875 18 12.875C17.8342 12.875 17.6753 12.9408 17.5581 13.0581C17.4408 13.1753 17.375 13.3342 17.375 13.5V18.5C17.375 18.845 17.655 19.125 18 19.125H21.75C21.9158 19.125 22.0747 19.0592 22.1919 18.9419C22.3092 18.8247 22.375 18.6658 22.375 18.5C22.375 18.3342 22.3092 18.1753 22.1919 18.0581C22.0747 17.9408 21.9158 17.875 21.75 17.875H18.625V13.5Z" fill="#6639E4"/>
</svg>
