<svg width="48" height="40" viewBox="0 0 48 40" fill="none" xmlns="http://www.w3.org/2000/svg">
<rect width="48" height="40" rx="12" fill="white"/>
<path fill-rule="evenodd" clip-rule="evenodd" d="M19.5 11.75C19.1022 11.75 18.7206 11.908 18.4393 12.1893C18.158 12.4706 18 12.8522 18 13.25V26.75C18 27.1478 18.158 27.5294 18.4393 27.8107C18.7206 28.092 19.1022 28.25 19.5 28.25H25.5C25.8978 28.25 26.2794 28.092 26.5607 27.8107C26.842 27.5294 27 27.1478 27 26.75V23C27 22.8011 27.079 22.6103 27.2197 22.4697C27.3603 22.329 27.5511 22.25 27.75 22.25C27.9489 22.25 28.1397 22.329 28.2803 22.4697C28.421 22.6103 28.5 22.8011 28.5 23V26.75C28.5 27.5456 28.1839 28.3087 27.6213 28.8713C27.0587 29.4339 26.2956 29.75 25.5 29.75H19.5C18.7044 29.75 17.9413 29.4339 17.3787 28.8713C16.8161 28.3087 16.5 27.5456 16.5 26.75V13.25C16.5 12.4544 16.8161 11.6913 17.3787 11.1287C17.9413 10.5661 18.7044 10.25 19.5 10.25H25.5C26.2956 10.25 27.0587 10.5661 27.6213 11.1287C28.1839 11.6913 28.5 12.4544 28.5 13.25V17C28.5 17.1989 28.421 17.3897 28.2803 17.5303C28.1397 17.671 27.9489 17.75 27.75 17.75C27.5511 17.75 27.3603 17.671 27.2197 17.5303C27.079 17.3897 27 17.1989 27 17V13.25C27 12.8522 26.842 12.4706 26.5607 12.1893C26.2794 11.908 25.8978 11.75 25.5 11.75H19.5ZM24.53 16.47C24.6705 16.6106 24.7493 16.8012 24.7493 17C24.7493 17.1988 24.6705 17.3894 24.53 17.53L22.81 19.25H33.75C33.9489 19.25 34.1397 19.329 34.2803 19.4697C34.421 19.6103 34.5 19.8011 34.5 20C34.5 20.1989 34.421 20.3897 34.2803 20.5303C34.1397 20.671 33.9489 20.75 33.75 20.75H22.81L24.53 22.47C24.6037 22.5387 24.6628 22.6215 24.7038 22.7135C24.7448 22.8055 24.7668 22.9048 24.7686 23.0055C24.7704 23.1062 24.7518 23.2062 24.7141 23.2996C24.6764 23.393 24.6203 23.4778 24.549 23.549C24.4778 23.6203 24.393 23.6764 24.2996 23.7141C24.2062 23.7518 24.1062 23.7704 24.0055 23.7686C23.9048 23.7668 23.8055 23.7448 23.7135 23.7038C23.6215 23.6628 23.5387 23.6037 23.47 23.53L20.47 20.53C20.3295 20.3894 20.2507 20.1988 20.2507 20C20.2507 19.8012 20.3295 19.6106 20.47 19.47L23.47 16.47C23.6106 16.3295 23.8012 16.2507 24 16.2507C24.1988 16.2507 24.3894 16.3295 24.53 16.47Z" fill="#6B7280"/>
</svg>
