<svg width="21" height="21" viewBox="0 0 21 21" fill="none" xmlns="http://www.w3.org/2000/svg">
<g clip-path="url(#clip0_2_190)">
<g clip-path="url(#clip1_2_190)">
<g clip-path="url(#clip2_2_190)">
<path d="M15.5998 6.37998C15.7598 6.53998 15.9699 6.59998 16.1699 6.58998H20.2398C20.6498 6.58998 20.9898 6.24998 20.9898 5.83998C20.9898 5.42998 20.6498 5.08998 20.2398 5.08998H17.9499L20.7698 2.25998C21.0598 1.96998 21.0598 1.48998 20.7698 1.19998C20.6198 1.04998 20.4298 0.97998 20.2398 0.97998C20.0498 0.97998 19.8598 1.04998 19.7098 1.19998L16.8899 4.02998V1.72998C16.8899 1.31998 16.5499 0.97998 16.1399 0.97998C15.7299 0.97998 15.3899 1.31998 15.3899 1.72998V5.79998C15.3699 6.01998 15.4398 6.22998 15.5998 6.37998ZM8.37976 12.3798C8.02976 12.2698 7.82975 12.0698 7.82975 11.9098C7.82975 11.7498 8.02976 11.5498 8.37976 11.4398V12.3798ZM9.48975 14.6098C9.83975 14.4898 10.0498 14.2898 10.0498 14.1398C10.0498 13.9798 9.83975 13.7798 9.48975 13.6598V13.6668C9.48314 13.6645 9.47648 13.6621 9.46976 13.6598V14.6098C9.47648 14.6075 9.48314 14.6052 9.48975 14.6028V14.6098ZM8.93976 5.06982C4.55976 5.06982 0.989746 8.63982 0.989746 13.0198C0.989746 17.4098 4.55976 20.9798 8.93976 20.9798C13.3198 20.9798 16.8798 17.4098 16.8798 13.0198C16.8798 8.63982 13.3198 5.06982 8.93976 5.06982ZM9.48975 15.7498V15.7998C9.48975 16.1098 9.23976 16.3598 8.93976 16.3598C8.62976 16.3598 8.37976 16.1098 8.37976 15.7998V15.7498C7.84977 15.6498 7.37977 15.4098 7.06977 15.0598C6.90977 14.8598 6.88977 14.5798 7.03977 14.3698C7.17977 14.1598 7.44976 14.0798 7.68976 14.1698L8.37976 14.4398V13.5198C7.40976 13.3398 6.70975 12.6998 6.70975 11.9098C6.70975 11.1198 7.40976 10.4798 8.37976 10.2998V10.2398C8.37976 9.92983 8.62976 9.67982 8.93976 9.67982C9.23976 9.67982 9.48975 9.92983 9.48975 10.2398V10.2898C10.0298 10.3898 10.4998 10.6398 10.7998 10.9898C10.9698 11.1798 10.9798 11.4598 10.8398 11.6698C10.7298 11.8198 10.5598 11.9098 10.3798 11.9098C10.3098 11.9098 10.2498 11.8998 10.1798 11.8698L9.48975 11.6098V12.5198C10.4598 12.6998 11.1598 13.3398 11.1598 14.1398C11.1598 14.9298 10.4598 15.5698 9.48975 15.7498Z" fill="#131128"/>
</g>
</g>
</g>
<defs>
<clipPath id="clip0_2_190">
<rect width="21" height="21" fill="white"/>
</clipPath>
<clipPath id="clip1_2_190">
<rect width="21" height="21" fill="white"/>
</clipPath>
<clipPath id="clip2_2_190">
<rect width="21" height="21" fill="white"/>
</clipPath>
</defs>
</svg>
