<svg width="13" height="13" viewBox="0 0 13 13" fill="none" xmlns="http://www.w3.org/2000/svg">
<g clip-path="url(#clip0_2_202)">
<g clip-path="url(#clip1_2_202)">
<g clip-path="url(#clip2_2_202)">
<path d="M11.6602 6.25C11.6602 9.42566 9.08582 12 5.91016 12C2.7345 12 0.160156 9.42566 0.160156 6.25C0.160156 3.07434 2.7345 0.5 5.91016 0.5C9.08582 0.5 11.6602 3.07434 11.6602 6.25ZM5.22449 6.27539L2.78077 3.81488L3.49036 3.11023L5.88916 5.5257L8.0647 3.07214L8.81299 3.7356L6.59534 6.23663L9.27893 8.93884L8.56946 9.64349L5.93055 6.98639L3.59717 9.61786L2.849 8.95441L5.22449 6.27539Z" fill="#FF7C84"/>
</g>
</g>
</g>
<defs>
<clipPath id="clip0_2_202">
<rect width="12" height="12" fill="white" transform="translate(0.160156 0.5)"/>
</clipPath>
<clipPath id="clip1_2_202">
<rect width="12" height="12" fill="white" transform="translate(0.160156 0.5)"/>
</clipPath>
<clipPath id="clip2_2_202">
<rect width="12" height="12" fill="white" transform="translate(0.160156 0.5)"/>
</clipPath>
</defs>
</svg>
