<svg width="26" height="29" viewBox="0 0 26 29" fill="none" xmlns="http://www.w3.org/2000/svg">
<path fill-rule="evenodd" clip-rule="evenodd" d="M0.0656738 9.04628C0.0656738 13.5751 0.0656738 15.566 0.0656738 20.0961C0.0656738 21.2709 0.694641 22.4235 1.73425 23.0213L11.2974 28.543C12.3266 29.1524 13.6352 29.1524 14.6631 28.543L24.2263 23.0213C25.2659 22.4235 25.8949 21.2695 25.8949 20.0961C25.8949 15.566 25.8949 13.5764 25.8949 9.04628C25.8949 7.86242 25.2555 6.71234 24.2263 6.12109L14.6645 0.599439C13.6352 -0.0100342 12.3266 -0.0100342 11.2987 0.599439L1.73425 6.12109C0.705033 6.71234 0.0656738 7.86242 0.0656738 9.04628Z" fill="#6639E4"/>
<path opacity="0.55" fill-rule="evenodd" clip-rule="evenodd" d="M0.67627 7.09849C0.949169 6.7034 1.30654 6.36423 1.73277 6.11865L11.2972 0.598299C11.8118 0.292912 12.3966 0.140869 12.9801 0.140869C13.5649 0.140869 14.1484 0.292912 14.6629 0.598299L24.2261 6.11994C24.6524 6.36558 25.0097 6.7034 25.2826 7.09978C24.8551 7.71835 24.1481 8.15759 23.5426 8.50455C20.5835 10.2121 17.6142 11.8963 14.6617 13.6013C14.1471 13.9054 13.5623 14.0587 12.9788 14.0587C12.394 14.0587 11.8105 13.9066 11.2959 13.6013C8.34602 11.895 5.37662 10.2108 2.41762 8.50326C1.81075 8.1563 1.10381 7.71707 0.67627 7.09849Z" fill="white"/>
<path opacity="0.2" fill-rule="evenodd" clip-rule="evenodd" d="M11.2974 13.5999C8.34622 11.8949 5.3768 10.2107 2.4178 8.50316C1.81092 8.1562 1.10399 7.71696 0.676446 7.09839C0.277495 7.69225 0.0721714 8.32774 0.0656738 9.04509C0.0656738 13.5739 0.0656738 15.5647 0.0656738 20.0948C0.0721714 20.8096 0.277495 21.449 0.676446 22.0402C1.10399 21.423 1.81092 20.9824 2.4165 20.6355C5.3755 18.9279 8.34487 17.2437 11.2974 15.5388C11.8055 15.2385 12.3812 15.0852 12.9582 15.0813C13.5495 15.0774 14.1433 15.2295 14.6644 15.5388C17.6169 17.2437 20.5863 18.9279 23.5453 20.6355C24.1509 20.9824 24.8591 21.4217 25.2854 22.0402C25.6934 21.4347 25.8896 20.7979 25.8961 20.0948C25.8961 15.5647 25.8961 13.5751 25.8961 9.04509C25.8896 8.34203 25.6922 7.70267 25.2854 7.09968C24.8578 7.71696 24.1509 8.15748 23.5453 8.50444C20.5863 10.212 17.6169 11.8962 14.6644 13.6011C14.1537 13.904 13.5728 14.056 12.992 14.0586C12.4046 14.0586 11.8159 13.9065 11.2974 13.5999Z" fill="white"/>
<path opacity="0.3" fill-rule="evenodd" clip-rule="evenodd" d="M6.03687 17.5396C6.03687 15.1043 6.03687 14.0335 6.03687 11.5982C6.04336 10.9589 6.36957 10.3494 6.93351 10.0258L12.0757 7.05639C12.6293 6.72892 13.3323 6.72892 13.8859 7.05639L19.0281 10.0258C19.5934 10.3507 19.9183 10.9589 19.9248 11.5982C19.9248 14.0335 19.9248 15.1043 19.9248 17.5396C19.9183 18.1803 19.5895 18.7897 19.0281 19.112L13.8859 22.0814C13.3323 22.4089 12.6293 22.4089 12.0757 22.0814L6.93351 19.1133C6.37214 18.7897 6.04336 18.1815 6.03687 17.5396Z" fill="white"/>
</svg>
