<svg width="48" height="40" viewBox="0 0 48 40" fill="none" xmlns="http://www.w3.org/2000/svg">
<rect width="48" height="40" rx="12" fill="white"/>
<path fill-rule="evenodd" clip-rule="evenodd" d="M23.0779 10.25C22.1609 10.25 21.3789 10.913 21.2279 11.817L21.0499 12.889C21.0299 13.009 20.9349 13.149 20.7529 13.237C20.4103 13.4017 20.0807 13.5923 19.7669 13.807C19.6009 13.922 19.4329 13.933 19.3169 13.89L18.2999 13.508C17.8842 13.3522 17.4266 13.3491 17.0088 13.499C16.5909 13.649 16.2398 13.9424 16.0179 14.327L15.0959 15.924C14.874 16.3084 14.7956 16.759 14.8748 17.1957C14.9539 17.6324 15.1853 18.0269 15.5279 18.309L16.3679 19.001C16.4629 19.079 16.5379 19.23 16.5219 19.431C16.4934 19.8101 16.4934 20.1909 16.5219 20.57C16.5369 20.77 16.4629 20.922 16.3689 21L15.5279 21.692C15.1853 21.9741 14.9539 22.3686 14.8748 22.8053C14.7956 23.242 14.874 23.6926 15.0959 24.077L16.0179 25.674C16.2399 26.0584 16.5911 26.3516 17.009 26.5014C17.4268 26.6512 17.8843 26.6478 18.2999 26.492L19.3189 26.11C19.4339 26.067 19.6019 26.079 19.7689 26.192C20.0809 26.406 20.4099 26.597 20.7539 26.762C20.9359 26.85 21.0309 26.99 21.0509 27.112L21.2289 28.183C21.3799 29.087 22.1619 29.75 23.0789 29.75H24.9229C25.8389 29.75 26.6219 29.087 26.7729 28.183L26.9509 27.111C26.9709 26.991 27.0649 26.851 27.2479 26.762C27.5919 26.597 27.9209 26.406 28.2329 26.192C28.3999 26.078 28.5679 26.067 28.6829 26.11L29.7029 26.492C30.1184 26.6472 30.5755 26.6501 30.993 26.5002C31.4104 26.3502 31.7612 26.0571 31.9829 25.673L32.9059 24.076C33.1278 23.6916 33.2062 23.241 33.1271 22.8043C33.048 22.3676 32.8166 21.9731 32.4739 21.691L31.6339 20.999C31.5389 20.921 31.4639 20.77 31.4799 20.569C31.5084 20.1899 31.5084 19.8091 31.4799 19.43C31.4639 19.23 31.5389 19.078 31.6329 19L32.4729 18.308C33.1809 17.726 33.3639 16.718 32.9059 15.923L31.9839 14.326C31.7619 13.9416 31.4108 13.6484 30.9929 13.4986C30.575 13.3488 30.1176 13.3522 29.7019 13.508L28.6819 13.89C28.5679 13.933 28.3999 13.921 28.2329 13.807C27.9195 13.5923 27.5902 13.4017 27.2479 13.237C27.0649 13.15 26.9709 13.01 26.9509 12.889L26.7719 11.817C26.699 11.3791 26.473 10.9812 26.1343 10.6943C25.7955 10.4073 25.3659 10.2499 24.9219 10.25H23.0789H23.0779ZM23.9999 23.75C24.9945 23.75 25.9483 23.3549 26.6516 22.6517C27.3548 21.9484 27.7499 20.9946 27.7499 20C27.7499 19.0054 27.3548 18.0516 26.6516 17.3483C25.9483 16.6451 24.9945 16.25 23.9999 16.25C23.0054 16.25 22.0515 16.6451 21.3483 17.3483C20.645 18.0516 20.2499 19.0054 20.2499 20C20.2499 20.9946 20.645 21.9484 21.3483 22.6517C22.0515 23.3549 23.0054 23.75 23.9999 23.75Z" fill="#6B7280"/>
</svg>
