<svg width="48" height="40" viewBox="0 0 48 40" fill="none" xmlns="http://www.w3.org/2000/svg">
<rect width="48" height="40" rx="12" fill="#6639E4"/>
<path fill-rule="evenodd" clip-rule="evenodd" d="M24 10.25C18.615 10.25 14.25 14.615 14.25 20C14.25 25.385 18.615 29.75 24 29.75C29.385 29.75 33.75 25.385 33.75 20C33.75 14.615 29.385 10.25 24 10.25ZM24.75 17C24.75 16.8011 24.671 16.6103 24.5303 16.4697C24.3897 16.329 24.1989 16.25 24 16.25C23.8011 16.25 23.6103 16.329 23.4697 16.4697C23.329 16.6103 23.25 16.8011 23.25 17V19.25H21C20.8011 19.25 20.6103 19.329 20.4697 19.4697C20.329 19.6103 20.25 19.8011 20.25 20C20.25 20.1989 20.329 20.3897 20.4697 20.5303C20.6103 20.671 20.8011 20.75 21 20.75H23.25V23C23.25 23.1989 23.329 23.3897 23.4697 23.5303C23.6103 23.671 23.8011 23.75 24 23.75C24.1989 23.75 24.3897 23.671 24.5303 23.5303C24.671 23.3897 24.75 23.1989 24.75 23V20.75H27C27.1989 20.75 27.3897 20.671 27.5303 20.5303C27.671 20.3897 27.75 20.1989 27.75 20C27.75 19.8011 27.671 19.6103 27.5303 19.4697C27.3897 19.329 27.1989 19.25 27 19.25H24.75V17Z" fill="white"/>
</svg>
