<svg width="48" height="40" viewBox="0 0 48 40" fill="none" xmlns="http://www.w3.org/2000/svg">
<rect width="48" height="40" rx="12" fill="white"/>
<path fill-rule="evenodd" clip-rule="evenodd" d="M20.25 14.75C20.25 13.7554 20.6451 12.8016 21.3483 12.0983C22.0516 11.3951 23.0054 11 24 11C24.9946 11 25.9484 11.3951 26.6517 12.0983C27.3549 12.8016 27.75 13.7554 27.75 14.75C27.75 15.7446 27.3549 16.6984 26.6517 17.4017C25.9484 18.1049 24.9946 18.5 24 18.5C23.0054 18.5 22.0516 18.1049 21.3483 17.4017C20.6451 16.6984 20.25 15.7446 20.25 14.75ZM27.75 17.75C27.75 16.9544 28.0661 16.1913 28.6287 15.6287C29.1913 15.0661 29.9544 14.75 30.75 14.75C31.5456 14.75 32.3087 15.0661 32.8713 15.6287C33.4339 16.1913 33.75 16.9544 33.75 17.75C33.75 18.5456 33.4339 19.3087 32.8713 19.8713C32.3087 20.4339 31.5456 20.75 30.75 20.75C29.9544 20.75 29.1913 20.4339 28.6287 19.8713C28.0661 19.3087 27.75 18.5456 27.75 17.75ZM14.25 17.75C14.25 16.9544 14.5661 16.1913 15.1287 15.6287C15.6913 15.0661 16.4544 14.75 17.25 14.75C18.0456 14.75 18.8087 15.0661 19.3713 15.6287C19.9339 16.1913 20.25 16.9544 20.25 17.75C20.25 18.5456 19.9339 19.3087 19.3713 19.8713C18.8087 20.4339 18.0456 20.75 17.25 20.75C16.4544 20.75 15.6913 20.4339 15.1287 19.8713C14.5661 19.3087 14.25 18.5456 14.25 17.75ZM18.31 23.117C18.92 22.161 19.7611 21.3743 20.7556 20.8294C21.7502 20.2846 22.866 19.9994 24 20C24.9498 19.9991 25.8891 20.1989 26.7564 20.5862C27.6237 20.9734 28.3994 21.5395 29.0327 22.2474C29.6661 22.9552 30.1428 23.7888 30.4317 24.6936C30.7205 25.5985 30.815 26.5541 30.709 27.498C30.696 27.6153 30.6556 27.7278 30.591 27.8265C30.5263 27.9252 30.4393 28.0073 30.337 28.066C28.4086 29.1725 26.2233 29.7532 24 29.75C21.695 29.75 19.53 29.138 17.663 28.066C17.5607 28.0073 17.4737 27.9252 17.409 27.8265C17.3444 27.7278 17.304 27.6153 17.291 27.498C17.1231 25.9646 17.4825 24.4198 18.31 23.118V23.117Z" fill="#6B7280"/>
<path d="M17.0821 22.2539C16.0958 23.7763 15.6363 25.5802 15.7741 27.3889C15.1736 27.2979 14.583 27.1505 14.0101 26.9489L13.8951 26.9089C13.7925 26.8725 13.7026 26.8071 13.6364 26.7207C13.5702 26.6342 13.5305 26.5305 13.5221 26.4219L13.5121 26.3009C13.4717 25.7989 13.5328 25.2938 13.6919 24.816C13.8509 24.3381 14.1046 23.8971 14.4378 23.5194C14.771 23.1417 15.1768 22.835 15.6312 22.6176C16.0855 22.4001 16.5789 22.2765 17.0821 22.2539ZM32.2261 27.3889C32.3638 25.5802 31.9043 23.7763 30.9181 22.2539C31.4212 22.2765 31.9147 22.4001 32.369 22.6176C32.8233 22.835 33.2292 23.1417 33.5624 23.5194C33.8955 23.8971 34.1492 24.3381 34.3083 24.816C34.4673 25.2938 34.5285 25.7989 34.4881 26.3009L34.4781 26.4219C34.4695 26.5303 34.4297 26.6338 34.3635 26.7201C34.2973 26.8063 34.2075 26.8716 34.1051 26.9079L33.9901 26.9479C33.4231 27.1479 32.8341 27.2969 32.2261 27.3889Z" fill="#6B7280"/>
</svg>
