<svg width="48" height="40" viewBox="0 0 48 40" fill="none" xmlns="http://www.w3.org/2000/svg">
<rect width="48" height="40" rx="12" fill="white"/>
<path d="M23.4699 11.8411C23.6106 11.7007 23.8012 11.6218 23.9999 11.6218C24.1987 11.6218 24.3893 11.7007 24.5299 11.8411L33.2199 20.5311C33.2892 20.6027 33.3719 20.6598 33.4635 20.6991C33.555 20.7383 33.6534 20.759 33.753 20.7598C33.8526 20.7606 33.9513 20.7416 34.0435 20.7038C34.1356 20.6661 34.2194 20.6104 34.2897 20.5399C34.3601 20.4694 34.4158 20.3857 34.4534 20.2935C34.4911 20.2013 34.51 20.1025 34.5091 20.003C34.5082 19.9034 34.4875 19.805 34.4481 19.7135C34.4088 19.622 34.3516 19.5393 34.2799 19.4701L25.5909 10.7801C25.382 10.5712 25.134 10.4054 24.861 10.2924C24.588 10.1793 24.2954 10.1211 23.9999 10.1211C23.7045 10.1211 23.4119 10.1793 23.1389 10.2924C22.8659 10.4054 22.6179 10.5712 22.4089 10.7801L13.7189 19.4701C13.6473 19.5393 13.5902 19.6221 13.551 19.7136C13.5117 19.8052 13.4911 19.9036 13.4903 20.0032C13.4894 20.1028 13.5085 20.2015 13.5462 20.2937C13.584 20.3858 13.6397 20.4695 13.7102 20.5399C13.7806 20.6103 13.8644 20.6659 13.9566 20.7036C14.0488 20.7413 14.1475 20.7602 14.2471 20.7593C14.3467 20.7584 14.4451 20.7377 14.5366 20.6983C14.6281 20.659 14.7108 20.6018 14.7799 20.5301L23.4699 11.8411Z" fill="#6B7280"/>
<path d="M24 13.4319L32.159 21.5909C32.189 21.6209 32.219 21.6489 32.25 21.6769V27.8749C32.25 28.9099 31.41 29.7499 30.375 29.7499H27C26.8011 29.7499 26.6103 29.6709 26.4697 29.5302C26.329 29.3896 26.25 29.1988 26.25 28.9999V24.4999C26.25 24.301 26.171 24.1102 26.0303 23.9696C25.8897 23.8289 25.6989 23.7499 25.5 23.7499H22.5C22.3011 23.7499 22.1103 23.8289 21.9697 23.9696C21.829 24.1102 21.75 24.301 21.75 24.4999V28.9999C21.75 29.1988 21.671 29.3896 21.5303 29.5302C21.3897 29.6709 21.1989 29.7499 21 29.7499H17.625C17.1277 29.7499 16.6508 29.5523 16.2992 29.2007C15.9475 28.8491 15.75 28.3722 15.75 27.8749V21.6769C15.7811 21.6491 15.8115 21.6204 15.841 21.5909L24 13.4319Z" fill="#6B7280"/>
</svg>
