<svg width="24" height="25" viewBox="0 0 24 25" fill="none" xmlns="http://www.w3.org/2000/svg">
<path fill-rule="evenodd" clip-rule="evenodd" d="M6.75 2.75C6.94891 2.75 7.13968 2.82902 7.28033 2.96967C7.42098 3.11032 7.5 3.30109 7.5 3.5V5H16.5V3.5C16.5 3.30109 16.579 3.11032 16.7197 2.96967C16.8603 2.82902 17.0511 2.75 17.25 2.75C17.4489 2.75 17.6397 2.82902 17.7803 2.96967C17.921 3.11032 18 3.30109 18 3.5V5H18.75C19.5456 5 20.3087 5.31607 20.8713 5.87868C21.4339 6.44129 21.75 7.20435 21.75 8V19.25C21.75 20.0456 21.4339 20.8087 20.8713 21.3713C20.3087 21.9339 19.5456 22.25 18.75 22.25H5.25C4.45435 22.25 3.69129 21.9339 3.12868 21.3713C2.56607 20.8087 2.25 20.0456 2.25 19.25V8C2.25 7.20435 2.56607 6.44129 3.12868 5.87868C3.69129 5.31607 4.45435 5 5.25 5H6V3.5C6 3.30109 6.07902 3.11032 6.21967 2.96967C6.36032 2.82902 6.55109 2.75 6.75 2.75ZM20.25 11.75C20.25 11.3522 20.092 10.9706 19.8107 10.6893C19.5294 10.408 19.1478 10.25 18.75 10.25H5.25C4.85218 10.25 4.47064 10.408 4.18934 10.6893C3.90804 10.9706 3.75 11.3522 3.75 11.75V19.25C3.75 19.6478 3.90804 20.0294 4.18934 20.3107C4.47064 20.592 4.85218 20.75 5.25 20.75H18.75C19.1478 20.75 19.5294 20.592 19.8107 20.3107C20.092 20.0294 20.25 19.6478 20.25 19.25V11.75Z" fill="#131128"/>
</svg>
