<svg width="24" height="25" viewBox="0 0 24 25" fill="none" xmlns="http://www.w3.org/2000/svg">
<path fill-rule="evenodd" clip-rule="evenodd" d="M2.25 2.75C2.05109 2.75 1.86032 2.82902 1.71967 2.96967C1.57902 3.11032 1.5 3.30109 1.5 3.5C1.5 3.69891 1.57902 3.88968 1.71967 4.03033C1.86032 4.17098 2.05109 4.25 2.25 4.25H3V14.75C3 15.5456 3.31607 16.3087 3.87868 16.8713C4.44129 17.4339 5.20435 17.75 6 17.75H7.21L6.038 21.263C5.97514 21.4518 5.98988 21.6579 6.07896 21.8359C6.16804 22.0138 6.32417 22.1491 6.513 22.212C6.70183 22.2749 6.9079 22.2601 7.08588 22.171C7.26385 22.082 7.39914 21.9258 7.462 21.737L7.791 20.75H16.209L16.539 21.737C16.6073 21.9186 16.7433 22.0666 16.9184 22.1501C17.0935 22.2335 17.2941 22.2459 17.4782 22.1845C17.6622 22.1232 17.8153 21.9929 17.9053 21.8211C17.9954 21.6493 18.0153 21.4492 17.961 21.263L16.791 17.75H18C18.7956 17.75 19.5587 17.4339 20.1213 16.8713C20.6839 16.3087 21 15.5456 21 14.75V4.25H21.75C21.9489 4.25 22.1397 4.17098 22.2803 4.03033C22.421 3.88968 22.5 3.69891 22.5 3.5C22.5 3.30109 22.421 3.11032 22.2803 2.96967C22.1397 2.82902 21.9489 2.75 21.75 2.75H2.25ZM8.29 19.25L8.79 17.75H15.21L15.71 19.25H8.29ZM15.75 7.25C15.75 7.05109 15.671 6.86032 15.5303 6.71967C15.3897 6.57902 15.1989 6.5 15 6.5C14.8011 6.5 14.6103 6.57902 14.4697 6.71967C14.329 6.86032 14.25 7.05109 14.25 7.25V13.25C14.25 13.4489 14.329 13.6397 14.4697 13.7803C14.6103 13.921 14.8011 14 15 14C15.1989 14 15.3897 13.921 15.5303 13.7803C15.671 13.6397 15.75 13.4489 15.75 13.25V7.25ZM12.75 9.5C12.75 9.30109 12.671 9.11032 12.5303 8.96967C12.3897 8.82902 12.1989 8.75 12 8.75C11.8011 8.75 11.6103 8.82902 11.4697 8.96967C11.329 9.11032 11.25 9.30109 11.25 9.5V13.25C11.25 13.4489 11.329 13.6397 11.4697 13.7803C11.6103 13.921 11.8011 14 12 14C12.1989 14 12.3897 13.921 12.5303 13.7803C12.671 13.6397 12.75 13.4489 12.75 13.25V9.5ZM9.75 11.75C9.75 11.5511 9.67098 11.3603 9.53033 11.2197C9.38968 11.079 9.19891 11 9 11C8.80109 11 8.61032 11.079 8.46967 11.2197C8.32902 11.3603 8.25 11.5511 8.25 11.75V13.25C8.25 13.4489 8.32902 13.6397 8.46967 13.7803C8.61032 13.921 8.80109 14 9 14C9.19891 14 9.38968 13.921 9.53033 13.7803C9.67098 13.6397 9.75 13.4489 9.75 13.25V11.75Z" fill="#131128"/>
</svg>
