<svg width="24" height="25" viewBox="0 0 24 25" fill="none" xmlns="http://www.w3.org/2000/svg">
<path d="M6 12.5C5.80109 12.5 5.61032 12.421 5.46967 12.2803C5.32902 12.1397 5.25 11.9489 5.25 11.75V4.25C5.25 4.05109 5.32902 3.86032 5.46967 3.71967C5.61032 3.57902 5.80109 3.5 6 3.5C6.19891 3.5 6.38968 3.57902 6.53033 3.71967C6.67098 3.86032 6.75 4.05109 6.75 4.25V11.75C6.75 11.9489 6.67098 12.1397 6.53033 12.2803C6.38968 12.421 6.19891 12.5 6 12.5ZM18 12.5C17.8011 12.5 17.6103 12.421 17.4697 12.2803C17.329 12.1397 17.25 11.9489 17.25 11.75V4.25C17.25 4.05109 17.329 3.86032 17.4697 3.71967C17.6103 3.57902 17.8011 3.5 18 3.5C18.1989 3.5 18.3897 3.57902 18.5303 3.71967C18.671 3.86032 18.75 4.05109 18.75 4.25V11.75C18.75 11.9489 18.671 12.1397 18.5303 12.2803C18.3897 12.421 18.1989 12.5 18 12.5ZM6.75 20.75V19.25C6.75 19.0511 6.67098 18.8603 6.53033 18.7197C6.38968 18.579 6.19891 18.5 6 18.5C5.80109 18.5 5.61032 18.579 5.46967 18.7197C5.32902 18.8603 5.25 19.0511 5.25 19.25V20.75C5.25 20.9489 5.32902 21.1397 5.46967 21.2803C5.61032 21.421 5.80109 21.5 6 21.5C6.19891 21.5 6.38968 21.421 6.53033 21.2803C6.67098 21.1397 6.75 20.9489 6.75 20.75ZM18.75 19.25V20.75C18.75 20.9489 18.671 21.1397 18.5303 21.2803C18.3897 21.421 18.1989 21.5 18 21.5C17.8011 21.5 17.6103 21.421 17.4697 21.2803C17.329 21.1397 17.25 20.9489 17.25 20.75V19.25C17.25 19.0511 17.329 18.8603 17.4697 18.7197C17.6103 18.579 17.8011 18.5 18 18.5C18.1989 18.5 18.3897 18.579 18.5303 18.7197C18.671 18.8603 18.75 19.0511 18.75 19.25ZM12.75 5.75V4.25C12.75 4.05109 12.671 3.86032 12.5303 3.71967C12.3897 3.57902 12.1989 3.5 12 3.5C11.8011 3.5 11.6103 3.57902 11.4697 3.71967C11.329 3.86032 11.25 4.05109 11.25 4.25V5.75C11.25 5.94891 11.329 6.13968 11.4697 6.28033C11.6103 6.42098 11.8011 6.5 12 6.5C12.1989 6.5 12.3897 6.42098 12.5303 6.28033C12.671 6.13968 12.75 5.94891 12.75 5.75ZM12 21.5C11.8011 21.5 11.6103 21.421 11.4697 21.2803C11.329 21.1397 11.25 20.9489 11.25 20.75V13.25C11.25 13.0511 11.329 12.8603 11.4697 12.7197C11.6103 12.579 11.8011 12.5 12 12.5C12.1989 12.5 12.3897 12.579 12.5303 12.7197C12.671 12.8603 12.75 13.0511 12.75 13.25V20.75C12.75 20.9489 12.671 21.1397 12.5303 21.2803C12.3897 21.421 12.1989 21.5 12 21.5ZM3.75 15.5C3.75 16.0967 3.98705 16.669 4.40901 17.091C4.83097 17.5129 5.40326 17.75 6 17.75C6.59674 17.75 7.16903 17.5129 7.59099 17.091C8.01295 16.669 8.25 16.0967 8.25 15.5C8.25 14.9033 8.01295 14.331 7.59099 13.909C7.16903 13.4871 6.59674 13.25 6 13.25C5.40326 13.25 4.83097 13.4871 4.40901 13.909C3.98705 14.331 3.75 14.9033 3.75 15.5ZM12 11.75C11.4033 11.75 10.831 11.5129 10.409 11.091C9.98705 10.669 9.75 10.0967 9.75 9.5C9.75 8.90326 9.98705 8.33097 10.409 7.90901C10.831 7.48705 11.4033 7.25 12 7.25C12.5967 7.25 13.169 7.48705 13.591 7.90901C14.0129 8.33097 14.25 8.90326 14.25 9.5C14.25 10.0967 14.0129 10.669 13.591 11.091C13.169 11.5129 12.5967 11.75 12 11.75ZM15.75 15.5C15.75 16.0967 15.9871 16.669 16.409 17.091C16.831 17.5129 17.4033 17.75 18 17.75C18.5967 17.75 19.169 17.5129 19.591 17.091C20.0129 16.669 20.25 16.0967 20.25 15.5C20.25 14.9033 20.0129 14.331 19.591 13.909C19.169 13.4871 18.5967 13.25 18 13.25C17.4033 13.25 16.831 13.4871 16.409 13.909C15.9871 14.331 15.75 14.9033 15.75 15.5Z" fill="#131128"/>
</svg>
