<svg width="24" height="25" viewBox="0 0 24 25" fill="none" xmlns="http://www.w3.org/2000/svg">
<path d="M4.07982 5.477C4.25015 4.83826 4.6267 4.27366 5.15094 3.87094C5.67518 3.46822 6.31775 3.24993 6.97882 3.25H17.0198C17.6811 3.24971 18.3239 3.4679 18.8483 3.87063C19.3728 4.27337 19.7494 4.83809 19.9198 5.477L22.0328 13.403C21.1022 12.6551 19.9437 12.2482 18.7498 12.25H5.24982C4.05559 12.248 2.89667 12.6549 1.96582 13.403L4.07982 5.477Z" fill="#131128"/>
<path fill-rule="evenodd" clip-rule="evenodd" d="M5.25 13.75C4.75754 13.75 4.26991 13.847 3.81494 14.0355C3.35997 14.2239 2.94657 14.5001 2.59835 14.8483C2.25013 15.1966 1.97391 15.61 1.78545 16.0649C1.597 16.5199 1.5 17.0075 1.5 17.5C1.5 17.9925 1.597 18.4801 1.78545 18.9351C1.97391 19.39 2.25013 19.8034 2.59835 20.1517C2.94657 20.4999 3.35997 20.7761 3.81494 20.9645C4.26991 21.153 4.75754 21.25 5.25 21.25H18.75C19.2425 21.25 19.7301 21.153 20.1851 20.9645C20.64 20.7761 21.0534 20.4999 21.4017 20.1517C21.7499 19.8034 22.0261 19.39 22.2145 18.9351C22.403 18.4801 22.5 17.9925 22.5 17.5C22.5 17.0075 22.403 16.5199 22.2145 16.0649C22.0261 15.61 21.7499 15.1966 21.4017 14.8483C21.0534 14.5001 20.64 14.2239 20.1851 14.0355C19.7301 13.847 19.2425 13.75 18.75 13.75H5.25ZM15.75 18.25C15.9489 18.25 16.1397 18.171 16.2803 18.0303C16.421 17.8897 16.5 17.6989 16.5 17.5C16.5 17.3011 16.421 17.1103 16.2803 16.9697C16.1397 16.829 15.9489 16.75 15.75 16.75C15.5511 16.75 15.3603 16.829 15.2197 16.9697C15.079 17.1103 15 17.3011 15 17.5C15 17.6989 15.079 17.8897 15.2197 18.0303C15.3603 18.171 15.5511 18.25 15.75 18.25ZM19.5 17.5C19.5 17.6989 19.421 17.8897 19.2803 18.0303C19.1397 18.171 18.9489 18.25 18.75 18.25C18.5511 18.25 18.3603 18.171 18.2197 18.0303C18.079 17.8897 18 17.6989 18 17.5C18 17.3011 18.079 17.1103 18.2197 16.9697C18.3603 16.829 18.5511 16.75 18.75 16.75C18.9489 16.75 19.1397 16.829 19.2803 16.9697C19.421 17.1103 19.5 17.3011 19.5 17.5Z" fill="#131128"/>
</svg>
