<svg width="24" height="25" viewBox="0 0 24 25" fill="none" xmlns="http://www.w3.org/2000/svg">
<path d="M2.273 6.125C3.09435 5.39854 4.15348 4.9983 5.25 5H18.75C19.891 5 20.933 5.425 21.727 6.125C21.6356 5.39994 21.2828 4.73315 20.7346 4.24982C20.1865 3.7665 19.4808 3.49987 18.75 3.5H5.25C4.51921 3.49987 3.81349 3.7665 3.26536 4.24982C2.71722 4.73315 2.36435 5.39994 2.273 6.125ZM2.273 9.125C3.09435 8.39854 4.15348 7.9983 5.25 8H18.75C19.891 8 20.933 8.425 21.727 9.125C21.6356 8.39994 21.2828 7.73315 20.7346 7.24983C20.1865 6.7665 19.4808 6.49987 18.75 6.5H5.25C4.51921 6.49987 3.81349 6.7665 3.26536 7.24983C2.71722 7.73315 2.36435 8.39994 2.273 9.125ZM5.25 9.5C4.45435 9.5 3.69129 9.81607 3.12868 10.3787C2.56607 10.9413 2.25 11.7044 2.25 12.5V18.5C2.25 19.2956 2.56607 20.0587 3.12868 20.6213C3.69129 21.1839 4.45435 21.5 5.25 21.5H18.75C19.5456 21.5 20.3087 21.1839 20.8713 20.6213C21.4339 20.0587 21.75 19.2956 21.75 18.5V12.5C21.75 11.7044 21.4339 10.9413 20.8713 10.3787C20.3087 9.81607 19.5456 9.5 18.75 9.5H15C14.8011 9.5 14.6103 9.57902 14.4697 9.71967C14.329 9.86032 14.25 10.0511 14.25 10.25C14.25 10.8467 14.0129 11.419 13.591 11.841C13.169 12.2629 12.5967 12.5 12 12.5C11.4033 12.5 10.831 12.2629 10.409 11.841C9.98705 11.419 9.75 10.8467 9.75 10.25C9.75 10.0511 9.67098 9.86032 9.53033 9.71967C9.38968 9.57902 9.19891 9.5 9 9.5H5.25Z" fill="#131128"/>
</svg>
